<?xml version="1.0" encoding="UTF-8"?><svg id="Livello_2" xmlns="http://www.w3.org/2000/svg" viewBox="0 0 202.11 194.89"><defs><style>.cls-1{fill:#575756;}.cls-2{fill:#b2b2b2;}.cls-3{fill:#9d9d9c;}.cls-4{fill:#dadada;}.cls-5{fill:#3c3c3b;}.cls-6{fill:#706f6f;}.cls-7{fill:#878787;}.cls-8{fill:#c6c6c6;}.cls-9{fill:#ededed;}</style></defs><g id="Livello_1-2"><g><path class="cls-9" d="M101.03,0c.16,.22,.42,.19,.65,.25,3.08,.78,5.12,3.18,5.22,6.36,.14,4.79,.18,9.58,.25,14.37,.06,4.07,.16,8.15,.14,12.22-.02,2.79-1.81,5.17-4.41,6.13-2.54,.94-5.49,.22-7.36-1.79-1.39-1.5-1.78-3.33-1.81-5.3-.07-6.03-.15-12.06-.24-18.09-.03-2.24-.1-4.47-.11-6.71-.03-3.85,1.77-6.2,5.49-7.23,.1-.03,.18-.14,.26-.21h1.92Z"/><path class="cls-7" d="M101.27,137.04c-.3-.34-.75-.22-1.12-.33-3.01-.84-4.93-3.42-4.99-6.82-.1-5.47-.17-10.94-.25-16.41-.04-3.07-.11-6.15-.11-9.22,0-3.96,3.02-7.06,6.81-7.02,3.77,.04,6.68,3.04,6.74,6.96,.13,8.58,.26,17.17,.39,25.75,.05,3.37-2.1,6.09-5.39,6.84-.22,.05-.49,0-.64,.24h-1.44Z"/><path class="cls-3" d="M87.36,97.55c0,1.4-.35,2.69-1.16,3.83-5.05,7.19-10.08,14.39-15.18,21.54-2.22,3.11-6.38,3.68-9.47,1.47-2.96-2.12-3.7-6.3-1.54-9.38,4.98-7.14,10-14.25,15.03-21.35,1.77-2.5,4.79-3.46,7.63-2.53,2.82,.92,4.67,3.45,4.69,6.41Z"/><path d="M143.31,18.18c.06,1.31-.34,2.6-1.14,3.74-5.05,7.19-10.08,14.39-15.17,21.54-2.16,3.03-6.41,3.66-9.38,1.53-3.02-2.16-3.83-6.26-1.69-9.35,5.01-7.21,10.07-14.39,15.16-21.55,1.77-2.48,4.82-3.36,7.67-2.39,2.77,.95,4.54,3.43,4.55,6.48Z"/><path class="cls-1" d="M135.15,72.24c.73-.07,1.49,.15,2.26,.39,8.12,2.51,16.25,5.01,24.36,7.52,3.75,1.16,5.76,4.79,4.71,8.47-1.03,3.61-4.81,5.67-8.55,4.53-8.36-2.53-16.71-5.11-25.05-7.72-3.27-1.03-5.07-4.19-4.51-7.65,.51-3.2,3.34-5.54,6.78-5.54Z"/><path class="cls-8" d="M67.08,64.8c-.81,.04-1.58-.16-2.35-.4-8.08-2.5-16.17-4.99-24.25-7.49-3.93-1.21-5.96-4.86-4.8-8.59,1.15-3.69,4.85-5.59,8.71-4.4,8.24,2.52,16.48,5.06,24.7,7.64,3.28,1.03,5.23,4.19,4.7,7.42-.57,3.46-3.29,5.82-6.71,5.82Z"/><path class="cls-5" d="M134.69,63.82c-3.33-.01-6.1-2.39-6.69-5.74-.55-3.11,1.29-6.32,4.38-7.42,3.91-1.4,7.85-2.71,11.78-4.05,4.38-1.49,8.75-3.02,13.16-4.45,2.77-.9,5.24-.21,7.17,1.97,1.9,2.15,2.2,4.65,1.09,7.27-.73,1.73-2.05,2.95-3.84,3.56-8.3,2.85-16.61,5.68-24.92,8.52-.68,.23-1.4,.34-2.12,.34Z"/><path class="cls-2" d="M35.96,88.48c0-2.94,1.59-5.44,4.35-6.4,8.33-2.9,16.67-5.76,25.03-8.55,3.56-1.19,7.33,.79,8.49,4.28,1.18,3.53-.57,7.32-4.14,8.56-8.33,2.9-16.67,5.77-25.04,8.53-4.32,1.42-8.68-1.88-8.69-6.41Z"/><path class="cls-4" d="M79.92,46.84c-2.44-.04-4.29-.94-5.65-2.74-5.21-6.94-10.43-13.87-15.6-20.83-2.28-3.07-1.64-7.32,1.33-9.51,3.08-2.28,7.23-1.69,9.58,1.43,5.18,6.86,10.32,13.75,15.47,20.63,1.71,2.29,1.99,4.79,.71,7.33-1.22,2.42-3.31,3.6-5.84,3.69Z"/><path class="cls-6" d="M137.97,124.6c-2.24,0-4.04-.92-5.37-2.68-5.27-6.99-10.53-13.99-15.74-21.02-2.18-2.94-1.49-7.15,1.38-9.33,3.01-2.28,7.15-1.76,9.51,1.27,2.24,2.87,4.38,5.81,6.56,8.72,3.04,4.06,6.12,8.11,9.12,12.2,2.9,3.95,1,9.34-3.69,10.65-.59,.16-1.18,.18-1.78,.19Z"/></g><g><path d="M22.65,154.43l-14.2,33.84h11.52c1.27,0,2.41,1.07,2.41,2.41v1.81c0,1.34-1.14,2.41-2.41,2.41H2.68c-1.27,0-2.35-1.07-2.35-2.41v-2.34l14.14-33.77H2.41c-1.34,0-2.41-1.07-2.41-2.41v-1.81c0-1.34,1.07-2.41,2.41-2.41H20.23c1.34,0,2.41,1.07,2.41,2.41v2.28Z"/><path class="cls-5" d="M45.85,149.73c1.34,0,2.41,1.07,2.41,2.41v1.81c0,1.34-1.07,2.41-2.41,2.41h-10.25v12.6h8.44c1.34,0,2.41,1.07,2.41,2.41v1.81c0,1.34-1.07,2.41-2.41,2.41h-8.44v12.66h10.25c1.34,0,2.41,1.07,2.41,2.41v1.81c0,1.34-1.07,2.41-2.41,2.41h-14.47c-1.34,0-2.41-1.07-2.41-2.41v-40.33c0-1.34,1.07-2.41,2.41-2.41h14.47Z"/><path class="cls-1" d="M75.15,192.41c0,1.34-1.07,2.41-2.41,2.41h-1.88c-1.34,0-2.41-1.07-2.41-2.41v-11.19c0-3.35-1.88-5.23-5.16-5.23h-3.02v16.42c0,1.34-1.07,2.41-2.35,2.41h-1.88c-1.34,0-2.41-1.07-2.41-2.41v-40.33c0-1.34,1.07-2.41,2.41-2.41h8.44c8.24,0,11.12,4.15,11.12,13.13,0,4.15-.74,7.5-2.81,9.58l-.54,.54c1.94,2.08,2.88,4.82,2.88,8.31v11.19Zm-14.87-23.18h3.02c3.75,0,5.7-1.88,5.7-6.43s-1.01-6.43-4.49-6.43h-4.22v12.86Z"/><path class="cls-6" d="M81.14,162.8c0-8.44,3.69-13.07,10.99-13.07s10.99,4.56,10.99,13.07v18.96c0,5.29-1.41,8.38-3.48,10.45-2.21,2.14-5.03,2.68-7.5,2.68s-5.23-.54-7.44-2.68c-2.08-2.08-3.55-5.16-3.55-10.45v-18.96Zm6.7,18.96c0,4.42,1.41,6.5,4.29,6.5s4.29-1.94,4.29-6.5v-18.96c0-4.49-1.41-6.43-4.29-6.43s-4.29,2.08-4.29,6.43v18.96Z"/><path class="cls-7" d="M125.33,192.48c0,1.34-1.14,2.41-2.41,2.41h-1.88c-1.34,0-2.41-1.07-2.41-2.41v-40.33c0-1.34,1.07-2.41,2.41-2.41h1.88c1.27,0,2.41,1.07,2.41,2.41v40.33Z"/><path class="cls-3" d="M133.33,194.89c-1.34,0-2.41-1.07-2.41-2.41v-40.33c0-1.34,1.07-2.41,2.41-2.41h6.83c8.04,0,11.79,4.56,11.79,13.27v18.63c0,8.71-3.75,13.27-11.79,13.27h-6.83Zm4.22-38.53v31.89h2.61c3.55,0,5.02-2.14,5.02-6.63v-18.63c0-4.49-1.47-6.63-5.02-6.63h-2.61Z"/><path class="cls-2" d="M175.16,149.73c1.34,0,2.41,1.07,2.41,2.41v1.81c0,1.34-1.07,2.41-2.41,2.41h-10.25v12.6h8.44c1.34,0,2.41,1.07,2.41,2.41v1.81c0,1.34-1.07,2.41-2.41,2.41h-8.44v12.66h10.25c1.34,0,2.41,1.07,2.41,2.41v1.81c0,1.34-1.07,2.41-2.41,2.41h-14.47c-1.34,0-2.41-1.07-2.41-2.41v-40.33c0-1.34,1.07-2.41,2.41-2.41h14.47Z"/><path class="cls-8" d="M199.7,149.73c1.34,0,2.41,1.07,2.41,2.41v1.81c0,1.34-1.07,2.41-2.41,2.41h-10.25v12.6h8.44c1.34,0,2.41,1.07,2.41,2.41v1.81c0,1.34-1.07,2.41-2.41,2.41h-8.44v12.66h10.25c1.34,0,2.41,1.07,2.41,2.41v1.81c0,1.34-1.07,2.41-2.41,2.41h-14.47c-1.34,0-2.41-1.07-2.41-2.41v-40.33c0-1.34,1.07-2.41,2.41-2.41h14.47Z"/></g></g></svg>